<svg width="24" height="24" viewBox="0 0 24 24" fill="none" xmlns="http://www.w3.org/2000/svg">
<g id="bxs-star 4">
<path id="Vector" d="M21.947 9.179C21.818 8.801 21.477 8.534 21.079 8.503L15.378 8.05L12.911 2.589C12.75 2.23 12.393 2 12 2C11.607 2 11.25 2.23 11.089 2.588L8.62199 8.05L2.92099 8.503C2.52999 8.534 2.19299 8.791 2.05999 9.16C1.92699 9.529 2.02099 9.942 2.30199 10.216L6.51499 14.323L5.02499 20.775C4.93299 21.174 5.09399 21.589 5.43099 21.822C5.60299 21.94 5.80099 22 5.99999 22C6.19299 22 6.38699 21.944 6.55499 21.832L12 18.202L17.445 21.832C17.793 22.064 18.25 22.055 18.59 21.808C18.928 21.561 19.077 21.128 18.962 20.726L17.133 14.326L21.669 10.244C21.966 9.976 22.075 9.558 21.947 9.179Z" fill="#FFB700"/>
</g>
</svg>
